<svg width="15" height="17" viewBox="0 0 15 17" fill="none" xmlns="http://www.w3.org/2000/svg">
<g clip-path="url(#clip0_3_475)">
<path d="M12.3783 1.82431C8.02267 -1.98412 1.15439 0.498373 0.128428 6.24731C-0.797791 11.3091 3.34407 15.6208 8.04166 15.2675H10.1886C10.7348 15.2675 11.1766 15.7176 11.1766 16.2741V16.6612C11.1766 16.9564 11.5233 17.1112 11.737 16.908C12.782 15.8966 15.0002 12.8237 15.0002 7.76197V7.77164C15.0429 5.60854 14.2117 3.40671 12.3783 1.82431ZM1.55338 6.5183C2.37985 1.87754 7.92292 -0.130718 11.4378 2.94699C14.9764 6.00051 13.903 11.8946 9.52836 13.4528C5.15376 15.0401 0.703159 11.1687 1.55338 6.5183Z" fill="#D42C24"/>
</g>
<defs>
<clipPath id="clip0_3_475">
<rect width="15" height="17" fill="white"/>
</clipPath>
</defs>
</svg>
