<svg width="216" height="241" viewBox="0 0 216 241" fill="none" xmlns="http://www.w3.org/2000/svg">
<g clip-path="url(#clip0_3_429)">
<path d="M215.895 105.785C215.899 105.161 215.906 104.54 215.906 103.908L215.857 104.024C215.014 75.3442 202.922 46.7283 178.167 25.7658C115.48 -28.0458 16.6381 7.05725 1.87662 88.213C-11.4614 159.796 48.3564 220.765 116.052 215.576H146.652C154.503 215.576 160.867 221.935 160.867 229.78V235.225C160.867 239.417 165.883 241.565 168.926 238.679C183.314 225.024 213.169 183.046 215.726 113.506C215.873 110.936 215.925 108.359 215.891 105.785H215.895ZM158.593 33.9687C167.19 34.3976 175.26 38.3072 180.92 44.7867C209.309 77.2934 212.48 128.825 186.286 163.92C182.934 168.575 179.217 172.887 175.173 176.823C171.667 180.236 165.955 176.676 167.423 172.01C168.052 170.008 168.617 167.984 169.107 165.945C169.107 165.941 169.107 165.937 169.107 165.93C169.351 164.906 169.581 163.883 169.792 162.859C171.727 153.403 172.221 143.676 171.102 134.096C170.895 132.377 170.635 130.661 170.281 128.971C163.1 97.8043 147.401 68.9325 124.171 46.7433C121.704 44.3878 122.529 40.2713 125.722 39.0635C136.217 35.0937 147.416 33.408 158.593 33.9649V33.9687ZM151.871 138.356C123.162 147.116 92.9119 147.127 64.3906 138.386C60.7756 137.276 58.6066 133.524 59.4538 129.841C66.1379 100.796 81.2646 74.6255 103.207 54.1635C105.964 51.5935 110.283 51.5935 113.039 54.1635C134.974 74.6218 150.101 100.781 156.785 129.822C157.633 133.509 155.479 137.261 151.875 138.36L151.871 138.356ZM17.3008 75.8296C22.987 59.7663 32.9359 45.3323 46.1497 34.2208C70.0617 13.6647 104.28 6.82771 134.383 15.2752C139.102 16.5997 138.917 23.3313 134.135 24.3924C123.357 26.7855 113.009 31.0864 103.768 37.1294C101.129 38.8565 98.5754 40.7153 96.1805 42.7585C72.227 64.7445 54.7693 93.082 47.1363 124.467C46.3304 127.782 42.3464 129.129 39.7028 126.97C31.2338 120.039 24.2334 111.369 19.1347 101.687C14.9247 93.6991 14.2883 84.3411 17.3008 75.8296ZM40.0154 175.856C27.5096 163.36 18.8711 148.034 14.695 131.319C13.5163 126.597 19.436 123.44 22.7309 127.026C30.2171 135.169 39.1493 141.983 49.038 146.961C51.7831 148.342 54.5961 149.591 57.4844 150.622C88.3931 160.428 121.764 161.346 153.012 152.24C156.288 151.285 159.436 154.058 158.887 157.426C157.079 168.488 152.956 179.02 146.9 188.416C142.212 195.689 134.718 200.728 126.216 202.353C95.3859 208.246 62.2103 198.474 40.0116 175.856H40.0154Z" fill="#D42C24"/>
</g>
<defs>
<clipPath id="clip0_3_429">
<rect width="215.906" height="240.001" fill="white"/>
</clipPath>
</defs>
</svg>
