<svg width="140" height="27" viewBox="0 0 140 27" fill="none" xmlns="http://www.w3.org/2000/svg">
<g clip-path="url(#clip0_3_459)">
<path d="M23.6829 12.0966C23.7567 8.7288 22.4483 5.30373 19.5498 2.84185C12.6725 -3.09225 1.82653 0.777376 0.206176 9.72231C-1.25651 17.603 5.28866 24.3117 12.7027 23.7628H16.091C16.9532 23.7628 17.651 24.4633 17.651 25.3288V25.9283C17.651 26.3897 18.2012 26.6254 18.5367 26.3088C20.1872 24.7361 23.6896 19.9538 23.6896 12.0764L23.6795 12.0933L23.6829 12.0966ZM17.4027 3.74443C18.3454 3.79158 19.2311 4.22266 19.8517 4.93664C22.9683 8.52 23.3139 14.2015 20.4388 18.0678C20.0698 18.5797 19.6639 19.0579 19.221 19.489C18.8352 19.8662 18.2112 19.4722 18.3723 18.9569C18.4427 18.7346 18.5031 18.5123 18.5568 18.2867C18.5836 18.1755 18.6105 18.061 18.6306 17.9499C18.8419 16.9092 18.8956 15.8349 18.7748 14.7808C18.7514 14.5922 18.7245 14.4036 18.6843 14.215C17.8959 10.7798 16.1749 7.59722 13.6253 5.15218C13.3535 4.89285 13.4441 4.4382 13.7964 4.30685C14.9471 3.86904 16.1783 3.68381 17.4027 3.74443ZM16.6647 15.2523C13.5146 16.2188 10.1967 16.2188 7.06669 15.2523C6.67082 15.131 6.43264 14.7168 6.52657 14.3093C7.26126 11.1065 8.91852 8.22363 11.3272 5.96719C11.6292 5.68429 12.1022 5.68429 12.4075 5.96719C14.8129 8.22363 16.4735 11.1065 17.2082 14.3059C17.3021 14.7134 17.0639 15.1243 16.668 15.2455L16.6647 15.2523ZM1.90034 8.35834C2.52432 6.58687 3.61463 4.99726 5.06724 3.77137C7.69068 1.50483 11.4447 0.750433 14.7491 1.68332C15.2658 1.82814 15.2456 2.57242 14.7223 2.68693C13.5414 2.94962 12.4041 3.42448 11.391 4.09131C11.1025 4.27991 10.8207 4.48535 10.559 4.71099C7.93222 7.13582 6.01664 10.2578 5.17795 13.7165C5.09073 14.0836 4.65125 14.2318 4.36274 13.9927C3.43347 13.2282 2.66522 12.2718 2.10498 11.2075C1.64202 10.3285 1.57157 9.2946 1.90369 8.35834H1.90034ZM4.39293 19.3846C3.02083 18.0072 2.07143 16.3165 1.61518 14.4743C1.48434 13.9523 2.13517 13.6054 2.49749 13.9994C3.31941 14.8987 4.299 15.6497 5.38259 16.1986C5.68452 16.3502 5.99316 16.4883 6.30851 16.6028C9.70018 17.6838 13.3602 17.7849 16.7888 16.7813C17.1478 16.6769 17.4933 16.9833 17.4329 17.3538C17.235 18.5729 16.7821 19.7348 16.1179 20.7688C15.6046 21.5703 14.7827 22.126 13.8467 22.3045C10.4651 22.9545 6.82514 21.8768 4.38958 19.3846H4.39293Z" fill="#D42C24"/>
<path d="M46.6999 3.69391V19.2061H43.5397V10.2847C43.5397 10.0793 43.5465 9.85702 43.5565 9.61454C43.5666 9.37206 43.5867 9.12957 43.6135 8.88036L39.5107 16.852C39.3832 17.1012 39.2121 17.2898 38.9974 17.4178C38.7827 17.5458 38.5378 17.6098 38.2593 17.6098H37.7729C37.4978 17.6098 37.2529 17.5458 37.0348 17.4178C36.8201 17.2898 36.649 17.1012 36.5216 16.852L32.4187 8.85678C32.4388 9.11274 32.4589 9.36195 32.4723 9.60781C32.4858 9.85366 32.4925 10.0793 32.4925 10.2847V19.2061H29.3323V3.69391H32.0664C32.2207 3.69391 32.3583 3.69728 32.4757 3.70401C32.5931 3.71075 32.6971 3.73095 32.7877 3.768C32.8783 3.80505 32.9621 3.85893 33.0359 3.93302C33.1098 4.00712 33.1836 4.11152 33.254 4.24623L37.2294 12.1135C37.3703 12.3829 37.5079 12.6624 37.6387 12.9554C37.7695 13.2451 37.8937 13.5448 38.0144 13.8513C38.1352 13.5381 38.2593 13.235 38.3902 12.9352C38.521 12.6388 38.6619 12.3526 38.8095 12.0832L42.7749 4.2496C42.8453 4.11489 42.9191 4.01048 42.9929 3.93639C43.0667 3.8623 43.1506 3.80841 43.2412 3.77137C43.3317 3.73432 43.4357 3.71412 43.5532 3.70738C43.6706 3.70064 43.8048 3.69728 43.9624 3.69728H46.6966L46.6999 3.69391Z" fill="white"/>
<path d="M48.4076 9.69872C49.0719 9.10936 49.8099 8.67154 50.6184 8.38527C51.4269 8.09901 52.2958 7.95419 53.2217 7.95419C53.886 7.95419 54.4865 8.06196 55.0199 8.2775C55.5533 8.49304 56.0062 8.79615 56.3786 9.18345C56.751 9.57075 57.0328 10.0288 57.2307 10.5609C57.4286 11.093 57.5293 11.6756 57.5293 12.3054V19.2027H56.023C55.711 19.2027 55.4761 19.1589 55.3185 19.0747C55.1608 18.9905 55.0266 18.8121 54.9192 18.5426L54.6844 17.9364C54.4093 18.1722 54.1443 18.3776 53.8893 18.5527C53.6344 18.7312 53.3727 18.8794 53.101 19.004C52.8292 19.1286 52.5374 19.2196 52.2321 19.2802C51.9234 19.3408 51.5846 19.3711 51.2089 19.3711C50.7056 19.3711 50.2494 19.3071 49.8401 19.1758C49.4308 19.0444 49.0819 18.8525 48.7968 18.5965C48.5116 18.3406 48.2902 18.024 48.1325 17.6434C47.9782 17.2629 47.8977 16.825 47.8977 16.33C47.8977 15.9326 47.995 15.5284 48.1963 15.1209C48.3942 14.7134 48.7364 14.3396 49.2262 14.0028C49.7126 13.666 50.3702 13.3831 51.1988 13.1575C52.0274 12.9318 53.0674 12.8039 54.3254 12.7735V12.3054C54.3254 11.6588 54.1913 11.194 53.9262 10.9044C53.6612 10.6148 53.2855 10.4733 52.7957 10.4733C52.4065 10.4733 52.0878 10.5171 51.8429 10.6013C51.5947 10.6855 51.3733 10.7832 51.1787 10.8876C50.9841 10.9953 50.7962 11.0896 50.6117 11.1738C50.4272 11.258 50.2091 11.3018 49.9542 11.3018C49.7294 11.3018 49.5382 11.2446 49.3805 11.13C49.2262 11.0155 49.0987 10.8808 48.9981 10.7259L48.4043 9.69199L48.4076 9.69872ZM54.3254 14.7134C53.6679 14.7404 53.1278 14.7976 52.7017 14.8852C52.279 14.9694 51.9402 15.0771 51.6953 15.2051C51.4471 15.3331 51.276 15.4779 51.182 15.6429C51.0881 15.8046 51.0378 15.9831 51.0378 16.175C51.0378 16.5522 51.1418 16.8149 51.3464 16.9665C51.5511 17.118 51.853 17.1955 52.2488 17.1955C52.6715 17.1955 53.0439 17.1214 53.3626 16.9732C53.6813 16.825 54.0034 16.5826 54.3288 16.2491V14.7168L54.3254 14.7134Z" fill="white"/>
<path d="M69.1804 8.50654V9.70885C69.1804 9.89408 69.1301 10.0389 69.0261 10.1467C68.9221 10.2544 68.7476 10.3353 68.5027 10.3925L67.7076 10.5744C67.7512 10.7293 67.7848 10.891 67.8083 11.0526C67.8318 11.2176 67.8452 11.386 67.8452 11.5645C67.8452 12.1168 67.7311 12.6153 67.4996 13.0531C67.2682 13.4943 66.9562 13.8681 66.5569 14.1746C66.1577 14.4844 65.6847 14.7202 65.1412 14.8886C64.5978 15.057 64.014 15.1378 63.39 15.1378C63.2189 15.1378 63.0546 15.131 62.8902 15.1209C62.7258 15.1108 62.5681 15.0906 62.4138 15.0637C62.1723 15.2119 62.0548 15.3803 62.0548 15.5655C62.0548 15.7507 62.1521 15.8821 62.3501 15.9663C62.548 16.0471 62.8097 16.1043 63.1351 16.138C63.4605 16.1683 63.8295 16.1919 64.2422 16.202C64.6548 16.2121 65.0775 16.2391 65.5103 16.2761C65.943 16.3165 66.3624 16.3805 66.7784 16.4714C67.191 16.5624 67.56 16.7139 67.8854 16.9194C68.2109 17.1248 68.4725 17.401 68.6705 17.7445C68.8684 18.088 68.969 18.5258 68.969 19.0579C68.969 19.553 68.8483 20.0413 68.6101 20.5162C68.3685 20.9911 68.0163 21.4154 67.55 21.7825C67.0836 22.153 66.51 22.4493 65.8323 22.6716C65.1547 22.8939 64.3763 23.0084 63.5007 23.0084C62.6252 23.0084 61.8938 22.9276 61.2698 22.7625C60.6458 22.5975 60.1258 22.3853 59.7099 22.1193C59.2972 21.8532 58.9919 21.5468 58.794 21.1999C58.5961 20.853 58.4988 20.4893 58.4988 20.1154C58.4988 19.6271 58.6397 19.2162 58.9215 18.8929C59.2033 18.5662 59.5991 18.3035 60.1091 18.1048C59.8407 17.9432 59.6293 17.731 59.4717 17.4784C59.3173 17.2225 59.2368 16.8924 59.2368 16.4883C59.2368 16.3266 59.2637 16.1515 59.3207 15.973C59.3777 15.7911 59.4683 15.616 59.5924 15.4409C59.7166 15.2658 59.8709 15.1007 60.0554 14.9458C60.2399 14.7909 60.458 14.6528 60.7129 14.5316C60.1393 14.2251 59.6864 13.8243 59.3542 13.3225C59.0221 12.8207 58.8544 12.2381 58.8544 11.5713C58.8544 11.0189 58.9718 10.5205 59.2033 10.0759C59.4381 9.63139 59.7568 9.25756 60.1627 8.94773C60.5687 8.63789 61.0484 8.40214 61.5986 8.23375C62.1488 8.06872 62.7459 7.98453 63.39 7.98453C64.3227 7.98453 65.1513 8.16302 65.8726 8.51664H69.1804V8.50654ZM65.9363 19.6103C65.9363 19.3476 65.8189 19.159 65.5874 19.0411C65.3526 18.9232 65.0507 18.839 64.6749 18.7919C64.2992 18.7414 63.8798 18.711 63.4169 18.7009C62.9539 18.6908 62.491 18.6639 62.0347 18.6201C61.8301 18.7616 61.6623 18.9198 61.5315 19.095C61.4007 19.2701 61.3369 19.4654 61.3369 19.6843C61.3369 19.8393 61.3705 19.9807 61.4376 20.1087C61.5047 20.2367 61.6221 20.3478 61.7932 20.4387C61.9643 20.5297 62.1924 20.6038 62.4775 20.6576C62.7627 20.7115 63.125 20.7385 63.5645 20.7385C64.0375 20.7385 64.4267 20.7115 64.7319 20.6543C65.0372 20.597 65.2788 20.5196 65.4599 20.4185C65.6411 20.3175 65.7652 20.1996 65.8357 20.0615C65.9061 19.9235 65.943 19.7719 65.943 19.6103H65.9363ZM63.39 13.107C63.9335 13.107 64.3294 12.9689 64.5709 12.6961C64.8158 12.4233 64.9366 12.0697 64.9366 11.6386C64.9366 11.2075 64.8158 10.8404 64.5709 10.5845C64.326 10.3285 63.9335 10.2006 63.39 10.2006C62.8466 10.2006 62.4507 10.3285 62.2092 10.5845C61.9643 10.8404 61.8435 11.1907 61.8435 11.6386C61.8435 11.8508 61.8737 12.0461 61.9341 12.2246C61.9945 12.4031 62.0884 12.558 62.2159 12.6894C62.3434 12.8207 62.5044 12.9251 62.699 12.9992C62.8935 13.0733 63.125 13.1104 63.3934 13.1104L63.39 13.107Z" fill="white"/>
<path d="M70.1365 19.2061V8.16639H72.1728C72.5821 8.16639 72.8505 8.35162 72.978 8.71871L73.1591 9.31482C73.3436 9.12285 73.5349 8.94772 73.7328 8.78944C73.9307 8.63115 74.1454 8.49307 74.3736 8.37519C74.6017 8.25732 74.8499 8.16639 75.115 8.09903C75.38 8.03167 75.6719 7.998 75.9906 7.998C76.6548 7.998 77.205 8.16976 77.6411 8.51327C78.0772 8.85679 78.406 9.31818 78.6341 9.89071C78.8186 9.55056 79.0434 9.25756 79.3084 9.01845C79.5735 8.77596 79.8586 8.58063 80.1673 8.43245C80.4759 8.28426 80.8013 8.17312 81.1435 8.1024C81.4857 8.03167 81.8279 7.99463 82.1667 7.99463C82.7974 7.99463 83.3543 8.08893 83.8407 8.27753C84.3272 8.46612 84.7365 8.73892 85.0652 9.09591C85.394 9.4529 85.6422 9.89408 85.8133 10.4161C85.9844 10.9381 86.0683 11.5275 86.0683 12.1876V19.2027H82.7806V12.1876C82.7806 11.0459 82.2942 10.4733 81.3179 10.4733C80.8718 10.4733 80.5027 10.6215 80.2109 10.9145C79.919 11.2075 79.7714 11.6319 79.7714 12.1876V19.2027H76.4837V12.1876C76.4837 11.5544 76.3596 11.1132 76.1113 10.8573C75.8631 10.6013 75.5008 10.4733 75.0177 10.4733C74.7225 10.4733 74.4407 10.5407 74.1756 10.6754C73.9106 10.8101 73.6623 10.992 73.4275 11.2176V19.2027H70.1398L70.1365 19.2061Z" fill="white"/>
<path d="M87.514 9.69872C88.1783 9.10936 88.9163 8.67154 89.7248 8.38527C90.5333 8.09901 91.4022 7.95419 92.3281 7.95419C92.9924 7.95419 93.5929 8.06196 94.1263 8.2775C94.6597 8.49304 95.1126 8.79615 95.485 9.18345C95.8573 9.57075 96.1391 10.0288 96.3371 10.5609C96.535 11.093 96.6323 11.6756 96.6323 12.3054V19.2027H95.126C94.814 19.2027 94.5792 19.1589 94.4215 19.0747C94.2638 18.9905 94.1296 18.8121 94.0223 18.5426L93.7874 17.9364C93.5124 18.1722 93.2473 18.3776 92.9924 18.5527C92.7374 18.7312 92.4757 18.8794 92.204 19.004C91.9323 19.1286 91.6404 19.2196 91.3351 19.2802C91.0265 19.3408 90.6876 19.3711 90.3119 19.3711C89.8087 19.3711 89.3524 19.3071 88.9431 19.1758C88.5339 19.0444 88.185 18.8525 87.8998 18.5965C87.6147 18.3406 87.3932 18.024 87.2356 17.6434C87.0813 17.2629 87.0007 16.825 87.0007 16.33C87.0007 15.9326 87.098 15.5284 87.296 15.1209C87.4939 14.7134 87.8361 14.3396 88.3259 14.0028C88.8123 13.666 89.4699 13.3831 90.2985 13.1575C91.1271 12.9318 92.1671 12.8039 93.4251 12.7735V12.3054C93.4251 11.6588 93.2909 11.194 93.0259 10.9044C92.7609 10.6148 92.3852 10.4733 91.8954 10.4733C91.5062 10.4733 91.1875 10.5171 90.9426 10.6013C90.6943 10.6855 90.4729 10.7832 90.2784 10.8876C90.0838 10.9953 89.8959 11.0896 89.7114 11.1738C89.5269 11.258 89.3088 11.3018 89.0539 11.3018C88.8291 11.3018 88.6379 11.2446 88.4802 11.13C88.3259 11.0155 88.1984 10.8808 88.0978 10.7259L87.5039 9.69199L87.514 9.69872ZM93.4318 14.7134C92.7743 14.7404 92.2342 14.7976 91.8081 14.8852C91.3854 14.9694 91.0466 15.0771 90.8017 15.2051C90.5534 15.3331 90.3824 15.4779 90.2884 15.6429C90.1945 15.8046 90.1442 15.9831 90.1442 16.175C90.1442 16.5522 90.2482 16.8149 90.4528 16.9665C90.6574 17.118 90.9594 17.1955 91.3552 17.1955C91.7779 17.1955 92.1503 17.1214 92.469 16.9732C92.7877 16.825 93.1098 16.5826 93.4352 16.2491V14.7168L93.4318 14.7134Z" fill="white"/>
<path d="M110.239 16.6701C110.31 16.6701 110.37 16.6937 110.421 16.7442L110.843 17.2023C110.531 17.5357 110.196 17.8354 109.83 18.1015C109.464 18.3675 109.065 18.5932 108.632 18.7818C108.196 18.9704 107.72 19.1152 107.2 19.2196C106.68 19.324 106.11 19.3745 105.489 19.3745C104.449 19.3745 103.496 19.1926 102.631 18.8255C101.765 18.4585 101.02 17.9432 100.4 17.273C99.7792 16.6028 99.2961 15.7911 98.954 14.8414C98.6118 13.8917 98.4407 12.8342 98.4407 11.6689C98.4407 10.5037 98.6185 9.48321 98.9707 8.54022C99.323 7.59723 99.8195 6.78558 100.457 6.10865C101.094 5.43172 101.856 4.90634 102.748 4.53251C103.641 4.15868 104.62 3.97345 105.697 3.97345C106.774 3.97345 107.629 4.13174 108.421 4.45168C109.213 4.77162 109.934 5.22291 110.585 5.80218L110.256 6.28041C110.199 6.3646 110.112 6.40839 109.991 6.40839C109.907 6.40839 109.77 6.33093 109.579 6.17264C109.387 6.01772 109.122 5.84596 108.783 5.65736C108.445 5.46876 108.022 5.297 107.515 5.14208C107.009 4.98716 106.405 4.90634 105.697 4.90634C104.791 4.90634 103.963 5.06126 103.211 5.37446C102.46 5.68767 101.812 6.13559 101.272 6.71486C100.732 7.29749 100.309 8.0081 100.004 8.84332C99.6987 9.68191 99.5478 10.6215 99.5478 11.6656C99.5478 12.7096 99.7021 13.6795 100.007 14.5181C100.313 15.3567 100.739 16.0639 101.275 16.6432C101.812 17.2225 102.446 17.6636 103.178 17.9735C103.909 18.2833 104.701 18.4382 105.546 18.4382C106.083 18.4382 106.563 18.4012 106.982 18.3305C107.401 18.2598 107.79 18.152 108.143 18.0105C108.495 17.8691 108.824 17.694 109.129 17.4885C109.434 17.2831 109.733 17.0406 110.031 16.7644C110.068 16.7375 110.102 16.7139 110.139 16.6937C110.176 16.6769 110.209 16.6668 110.246 16.6668L110.239 16.6701Z" fill="white"/>
<path d="M113.866 10.4026C114.352 9.80649 114.909 9.33163 115.537 8.97464C116.161 8.62102 116.865 8.44252 117.64 8.44252C118.22 8.44252 118.73 8.53345 119.173 8.71868C119.616 8.90392 119.982 9.16997 120.27 9.51686C120.559 9.86375 120.78 10.2847 120.928 10.7731C121.075 11.2614 121.149 11.8171 121.149 12.4334V19.2027H120.133V12.4334C120.133 11.4399 119.908 10.6619 119.455 10.0961C119.002 9.53033 118.314 9.2508 117.388 9.2508C116.704 9.2508 116.06 9.42593 115.463 9.77618C114.866 10.1264 114.332 10.6148 113.866 11.2412V19.2027H112.849V3.71747H113.866V10.4026Z" fill="white"/>
<path d="M123.789 10.113C124.34 9.56065 124.92 9.13968 125.527 8.85678C126.134 8.57388 126.825 8.43243 127.594 8.43243C128.161 8.43243 128.654 8.52337 129.08 8.70523C129.506 8.88709 129.855 9.14641 130.133 9.48319C130.412 9.81998 130.623 10.2275 130.764 10.7091C130.905 11.1873 130.975 11.7228 130.975 12.3122V19.2095H130.573C130.361 19.2095 130.23 19.1118 130.18 18.9131L130.033 17.5491C129.744 17.832 129.456 18.088 129.167 18.317C128.882 18.5426 128.583 18.7346 128.271 18.8929C127.959 19.0478 127.624 19.1691 127.265 19.2532C126.906 19.3374 126.507 19.3812 126.077 19.3812C125.718 19.3812 125.366 19.3273 125.027 19.2229C124.688 19.1152 124.386 18.9535 124.121 18.7346C123.856 18.5157 123.645 18.2328 123.484 17.8893C123.326 17.5458 123.246 17.1315 123.246 16.6499C123.246 16.202 123.373 15.7878 123.628 15.4038C123.883 15.0199 124.282 14.6865 124.826 14.4036C125.369 14.1207 126.067 13.8917 126.919 13.7233C127.771 13.5515 128.795 13.4539 129.989 13.4235V12.3155C129.989 11.3355 129.778 10.5811 129.358 10.0524C128.939 9.52361 128.315 9.26092 127.486 9.26092C126.976 9.26092 126.544 9.33164 126.188 9.47309C125.832 9.61454 125.527 9.77283 125.282 9.94122C125.034 10.113 124.833 10.2679 124.678 10.4093C124.524 10.5508 124.393 10.6215 124.286 10.6215C124.209 10.6215 124.145 10.6047 124.095 10.5676C124.044 10.5306 124.004 10.4868 123.967 10.4296L123.786 10.1197L123.789 10.113ZM129.992 14.0836C128.989 14.1207 128.124 14.1981 127.399 14.3228C126.674 14.4474 126.077 14.6158 125.608 14.8279C125.138 15.0401 124.789 15.2961 124.564 15.5891C124.34 15.8821 124.225 16.2188 124.225 16.596C124.225 16.9497 124.282 17.2595 124.4 17.5155C124.517 17.7748 124.672 17.9869 124.866 18.1553C125.061 18.3237 125.286 18.445 125.541 18.5224C125.795 18.5999 126.061 18.6403 126.336 18.6403C126.745 18.6403 127.121 18.5965 127.466 18.5056C127.808 18.418 128.127 18.2934 128.419 18.1318C128.711 17.9735 128.986 17.7815 129.241 17.5626C129.496 17.3437 129.747 17.1046 129.992 16.8486V14.0803V14.0836Z" fill="white"/>
<path d="M136.695 19.3745C135.981 19.3745 135.424 19.1758 135.024 18.7784C134.625 18.381 134.424 17.768 134.424 16.9362V9.69872H132.908C132.83 9.69872 132.767 9.67852 132.716 9.63474C132.666 9.59095 132.643 9.53033 132.643 9.45287V9.05884L134.444 8.93086L134.699 5.14206C134.712 5.07807 134.743 5.02082 134.783 4.9703C134.827 4.91978 134.887 4.89621 134.964 4.89621H135.44V8.94096H138.768V9.69536H135.44V16.8823C135.44 17.1719 135.477 17.4245 135.551 17.6333C135.625 17.8421 135.729 18.0139 135.86 18.1486C135.991 18.2833 136.145 18.3843 136.319 18.4483C136.497 18.5123 136.688 18.5426 136.893 18.5426C137.148 18.5426 137.366 18.5056 137.551 18.4315C137.735 18.3574 137.893 18.2766 138.027 18.1856C138.161 18.0981 138.272 18.0139 138.356 17.9398C138.44 17.8657 138.507 17.8286 138.557 17.8286C138.614 17.8286 138.671 17.8657 138.728 17.9364L139.003 18.3843C138.735 18.6807 138.393 18.9232 137.98 19.1017C137.567 19.2835 137.138 19.3745 136.692 19.3745H136.695Z" fill="white"/>
</g>
<defs>
<clipPath id="clip0_3_459">
<rect width="139.003" height="26.4538" fill="white"/>
</clipPath>
</defs>
</svg>
